# xmcd
#
# Track frame offsets:
#	150
#	17604
#	31952
#	43859
#	58764
#	71754
#	88796
#	106262
#	129065
#	148819
#	167033
#
# Disc length: 2386 seconds
#
# Revision: 3183061418
# Processed by: cddbd v1.5.2PL0 Copyright (c) Steve Scherf et al.
# Submitted via: EZCDAudioConverter 8.1.0.1
#
DISCID=9409500b
DTITLE=Eric Church - Chief
DYEAR=2011
DGENRE=Country
TTITLE0=Creepin'
TTITLE1=Drink In My Hand
TTITLE2=Keep On
TTITLE3=Like Jesus Does
TTITLE4=Hungover and Hard Up
TTITLE5=Homeboy
TTITLE6=Country Music Jesus
TTITLE7=Jack Daniels
TTITLE8=Springsteen
TTITLE9=I'm Gettin' Stoned
TTITLE10=Over When It's Over
EXTD=
EXTT0=
EXTT1=
EXTT2=
EXTT3=
EXTT4=
EXTT5=
EXTT6=
EXTT7=
EXTT8=
EXTT9=
EXTT10=
PLAYORDER=
